<svg width="11" height="11" viewBox="0 0 11 11" fill="none" xmlns="http://www.w3.org/2000/svg">
<g clip-path="url(#clip0)">
<rect width="11" height="11" fill="white"/>
<path fill-rule="evenodd" clip-rule="evenodd" d="M5.50001 0.0833435C2.51001 0.0833435 0.0833435 2.51001 0.0833435 5.50001C0.0833435 8.49001 2.51001 10.9167 5.50001 10.9167C8.49001 10.9167 10.9167 8.49001 10.9167 5.50001C10.9167 2.51001 8.49001 0.0833435 5.50001 0.0833435ZM5.50002 9.83334C3.11127 9.83334 1.16669 7.88875 1.16669 5.5C1.16669 3.11126 3.11127 1.16667 5.50002 1.16667C7.88877 1.16667 9.83335 3.11126 9.83335 5.5C9.83335 7.88875 7.88877 9.83334 5.50002 9.83334ZM7.66669 5.50001L4.41669 7.93751V3.06251L7.66669 5.50001Z" fill="black" fill-opacity="0.54"/>
</g>
<defs>
<clipPath id="clip0">
<rect width="11" height="11" fill="white"/>
</clipPath>
</defs>
</svg>
