<svg width="13" height="11" viewBox="0 0 13 11" fill="none" xmlns="http://www.w3.org/2000/svg">
<g clip-path="url(#clip0)">
<rect width="13" height="11" fill="white"/>
<path fill-rule="evenodd" clip-rule="evenodd" d="M6.5 0.832407L3.43706 1.96442L1.80731 4.83079L2.37332 8.0903L4.87025 10.2178H8.12975L10.6267 8.0903L11.1927 4.83079L9.56294 1.96442L6.5 0.832407ZM10.0899 1.32676L6.5 0L2.91013 1.32676L1 4.68624L1.66338 8.5065L4.58987 11H8.41013L11.3366 8.5065L12 4.68624L10.0899 1.32676Z" fill="#34C85D"/>
<path fill-rule="evenodd" clip-rule="evenodd" d="M10.0145 3.41009C10.1806 3.54502 10.2076 3.79114 10.0747 3.95981L6.22305 8.8486C6.15293 8.9376 6.04807 8.99112 5.93589 8.99514C5.82372 8.99917 5.7154 8.95331 5.63927 8.86956L3.3283 6.32739C3.18401 6.16867 3.19376 5.92124 3.35007 5.77473C3.50637 5.62822 3.75005 5.63811 3.89433 5.79683L5.90141 8.00471L9.47314 3.47117C9.60603 3.3025 9.84841 3.27515 10.0145 3.41009Z" fill="#34C85D"/>
</g>
<defs>
<clipPath id="clip0">
<rect width="13" height="11" fill="white"/>
</clipPath>
</defs>
</svg>
