<svg width="20" height="20" viewBox="0 0 20 20" fill="none" xmlns="http://www.w3.org/2000/svg">
<g clip-path="url(#clip0)">
<rect width="20" height="20" fill="white"/>
<path fill-rule="evenodd" clip-rule="evenodd" d="M14.1667 7.08333H15C15.9167 7.08333 16.6667 7.83333 16.6667 8.75V17.0833C16.6667 18 15.9167 18.75 15 18.75H5C4.08334 18.75 3.33334 18 3.33334 17.0833V8.75C3.33334 7.83333 4.08334 7.08333 5 7.08333H5.83334V5.41667C5.83334 3.11667 7.7 1.25 10 1.25C12.3 1.25 14.1667 3.11667 14.1667 5.41667V7.08333ZM10 2.91667C8.61667 2.91667 7.5 4.03333 7.5 5.41667V7.08333H12.5V5.41667C12.5 4.03333 11.3833 2.91667 10 2.91667ZM5 17.0833V8.75H15V17.0833H5ZM11.6667 12.9167C11.6667 13.8333 10.9167 14.5833 10 14.5833C9.08334 14.5833 8.33334 13.8333 8.33334 12.9167C8.33334 12 9.08334 11.25 10 11.25C10.9167 11.25 11.6667 12 11.6667 12.9167Z" fill="black" fill-opacity="0.54"/>
</g>
<defs>
<clipPath id="clip0">
<rect width="20" height="20" fill="white"/>
</clipPath>
</defs>
</svg>
