<svg width="13" height="12" viewBox="0 0 13 12" fill="none" xmlns="http://www.w3.org/2000/svg">
<path d="M6.09198 0.271668C6.23728 -0.0903935 6.76271 -0.0903929 6.90802 0.271668L8.31687 3.78214C8.3794 3.93795 8.52945 4.04383 8.70078 4.05303L12.5853 4.26179C12.9859 4.28333 13.1486 4.77505 12.8364 5.02083L9.82741 7.38955C9.69269 7.49561 9.63465 7.66909 9.67933 7.83222L10.6732 11.4611C10.7763 11.8377 10.3509 12.1412 10.014 11.9315L6.73583 9.89003C6.59202 9.80048 6.40798 9.80048 6.26417 9.89003L2.98595 11.9315C2.64909 12.1412 2.22368 11.8377 2.32681 11.4611L3.32067 7.83222C3.36535 7.66909 3.30731 7.49561 3.17258 7.38955L0.163605 5.02083C-0.148605 4.77505 0.0140762 4.28333 0.414721 4.26179L4.29922 4.05303C4.47055 4.04383 4.62059 3.93795 4.68313 3.78213L6.09198 0.271668Z" fill="url(#paint0_linear)"/>
<defs>
<linearGradient id="paint0_linear" x1="5" y1="1.50012" x2="6.5" y2="12.0001" gradientUnits="userSpaceOnUse">
<stop stop-color="#FF2F33"/>
<stop offset="1" stop-color="#FAA628"/>
</linearGradient>
</defs>
</svg>
