<svg width="24" height="20" viewBox="0 0 24 20" fill="none" xmlns="http://www.w3.org/2000/svg">
<g clip-path="url(#clip0)">
<rect width="24" height="20" fill="white"/>
<path fill-rule="evenodd" clip-rule="evenodd" d="M1 10C2.73 5.61 7 2.5 12 2.5C17 2.5 21.27 5.61 23 10C21.27 14.39 17 17.5 12 17.5C7 17.5 2.73 14.39 1 10ZM20.82 10C19.17 6.63 15.79 4.5 12 4.5C8.21 4.5 4.83 6.63 3.18 10C4.83 13.37 8.21 15.5 12 15.5C15.79 15.5 19.17 13.37 20.82 10ZM12 7.5C13.38 7.5 14.5 8.62 14.5 10C14.5 11.38 13.38 12.5 12 12.5C10.62 12.5 9.5 11.38 9.5 10C9.5 8.62 10.62 7.5 12 7.5ZM7.5 10C7.5 7.52 9.52 5.5 12 5.5C14.48 5.5 16.5 7.52 16.5 10C16.5 12.48 14.48 14.5 12 14.5C9.52 14.5 7.5 12.48 7.5 10Z" fill="black" fill-opacity="0.54"/>
</g>
<defs>
<clipPath id="clip0">
<rect width="24" height="20" fill="white"/>
</clipPath>
</defs>
</svg>
