<svg width="16" height="15" viewBox="0 0 16 15" fill="none" xmlns="http://www.w3.org/2000/svg">
<rect width="16" height="15" fill="white"/>
<path d="M7.49782 0.339432C7.67666 -0.113144 8.32334 -0.113144 8.50218 0.339433L10.2362 4.72752C10.3131 4.92228 10.4978 5.05463 10.7087 5.06614L15.4896 5.32709C15.9827 5.35401 16.1829 5.96866 15.7986 6.27588L12.0953 9.23678C11.9295 9.36936 11.858 9.58621 11.913 9.79012L13.1362 14.3263C13.2632 14.797 12.7396 15.1764 12.325 14.9142L8.29025 12.3624C8.11325 12.2504 7.88674 12.2504 7.70975 12.3624L3.67502 14.9142C3.26042 15.1764 2.73684 14.797 2.86376 14.3263L4.08698 9.79012C4.14197 9.58621 4.07054 9.36936 3.90472 9.23678L0.201359 6.27588C-0.182898 5.96866 0.0173245 5.35401 0.510426 5.32709L5.29134 5.06614C5.50221 5.05463 5.68689 4.92228 5.76385 4.72752L7.49782 0.339432Z" fill="#747474"/>
</svg>
