<svg width="19" height="20" viewBox="0 0 19 20" fill="none" xmlns="http://www.w3.org/2000/svg">
<path fill-rule="evenodd" clip-rule="evenodd" d="M9.28394 3.38708C7.57414 3.38708 6.18929 4.90281 6.18929 6.77418C6.18929 8.64555 7.57414 10.1613 9.28394 10.1613C10.9937 10.1613 12.3786 8.64555 12.3786 6.77418C12.3786 4.90281 10.9937 3.38708 9.28394 3.38708ZM10.8313 6.77418C10.8313 5.84273 10.135 5.08063 9.28394 5.08063C8.43291 5.08063 7.73662 5.84273 7.73662 6.77418C7.73662 7.70563 8.43291 8.46773 9.28394 8.46773C10.135 8.46773 10.8313 7.70563 10.8313 6.77418ZM13.9259 14.3952C13.7712 13.7939 11.3728 12.7016 9.28395 12.7016C7.19506 12.7016 4.79671 13.7939 4.64197 14.4036V15.2419H13.9259V14.3952ZM3.09464 14.3951C3.09464 12.1427 7.21826 11.0081 9.28394 11.0081C11.3496 11.0081 15.4732 12.1427 15.4732 14.3951V16.9355H3.09464V14.3951Z" fill="black" fill-opacity="0.54"/>
</svg>
